<svg xmlns="http://www.w3.org/2000/svg" viewBox="0 0 38.12 35.58"><defs><style>.cls-1{fill:none;stroke:#fff;stroke-miterlimit:10;stroke-width:2px;fill-rule:evenodd;}</style></defs><g id="Capa_2" data-name="Capa 2"><g id="Capa_1-2" data-name="Capa 1"><path class="cls-1" d="M32.85,23.19c-1.54-.92-3.53-1.94-5.33-1.2-1.39.56-2.27,2.73-3.17,3.84a1.34,1.34,0,0,1-1.72.37,24.15,24.15,0,0,1-12-10.32,1.48,1.48,0,0,1,.19-2A8.17,8.17,0,0,0,13,10.3a7.78,7.78,0,0,0-1-4.2c-.73-1.57-1.54-3.8-3.11-4.68a4.25,4.25,0,0,0-4.62.68A9.42,9.42,0,0,0,1,9.54a11,11,0,0,0,.29,2.36,19.45,19.45,0,0,0,2.27,5.21A39,39,0,0,0,5.92,20.7a36.41,36.41,0,0,0,10.24,9.51,30.94,30.94,0,0,0,6.39,3c2.5.83,4.74,1.69,7.44,1.18a9,9,0,0,0,6.74-5,4.44,4.44,0,0,0,.32-2.56C36.66,25.09,34.27,24,32.85,23.19Z"/></g></g></svg>