<svg xmlns="http://www.w3.org/2000/svg" xmlns:xlink="http://www.w3.org/1999/xlink" viewBox="0 0 2758.48 870.14"><defs><style>.cls-1{fill:none;}.cls-2{isolation:isolate;}.cls-3{fill:#a62024;}.cls-4{clip-path:url(#clip-path);}.cls-5{mix-blend-mode:multiply;opacity:0.25;}</style><clipPath id="clip-path" transform="translate(417.96 45.83)"><rect class="cls-1" width="1922.56" height="767.08"/></clipPath></defs><g class="cls-2"><g id="Capa_2" data-name="Capa 2"><g id="Capa_1-2" data-name="Capa 1"><rect class="cls-3" x="417.96" y="45.83" width="1922.56" height="767.08"/><g class="cls-4"><g class="cls-5"><path class="cls-3" d="M367.13,319.85c-16.08-27.29-38.95-63.38-63.64-101.38-16.85-26.09-34.64-53-51.67-78.61-46-69.29-86.45-128.64-89.6-133.26L126.55-45.69,90.77,6.56C87.63,11.18,47.18,70.33,1.14,139.49c-17,25.62-34.82,52.54-51.74,78.6-24.76,38-47.72,74.2-63.88,101.5-4.08,6.9-8,14-11.62,21.24-.17.34-.37.62-.5,1-3.56,7-6.87,14.33-10,21.67-.26.55-.53,1.17-.76,1.73-3,7.27-5.85,14.63-8.48,22.18-.26.74-.53,1.48-.76,2.22-2.53,7.44-4.9,15-7,22.6-.27.89-.49,1.71-.74,2.59-2.08,7.62-3.87,15.32-5.49,23.1-.15.91-.38,1.85-.58,2.74-1.54,7.82-2.86,15.63-3.93,23.55-.16.92-.27,1.88-.4,2.84q-1.58,11.85-2.39,23.87c0,.9-.12,1.81-.15,2.72-.51,8.06-.75,16.08-.73,24.25v2.46c.08,8.22.47,16.37,1.12,24.53,0,.75.1,1.44.14,2.13.73,8.3,1.69,16.55,3,24.8.1.54.19,1.08.29,1.63q2,12.57,5.07,25c.08.34.15.71.27,1.06,2.07,8.42,4.52,16.81,7.33,25.09a1.07,1.07,0,0,1,.08.27c2.69,7.81,5.72,15.53,9.06,23.1.43,1.05.88,2.12,1.33,3.15,3.28,7.31,6.94,14.52,10.8,21.59.63,1.08,1.25,2.16,1.91,3.31,4.1,7.17,8.48,14.22,13.25,21.08.42.63.88,1.22,1.35,1.86,5.06,7.18,10.45,14.27,16.34,21.11a244.06,244.06,0,0,0,53.92-19.2,185.69,185.69,0,0,0,30.14-18.36c-3.61-3.21-7.16-6.49-10.57-10-80.46-83.4-68.78-221.32-17-308.72,10.9-18.31,25.23-41.22,41.17-66.1,16.18-25.24,34-52.49,51.73-79.42,26.82-40.53,53.36-80.14,73.69-110.1,20.23,30,46.84,69.74,73.61,110.36,17.78,27,35.58,54.22,51.65,79.48,15.89,24.83,30.13,47.69,41,66,51.71,87.45,63.29,225.38-17.27,308.69a225.85,225.85,0,0,1-23.93,21.14c-25.55,19.94-54.39,33.65-85,40a198.06,198.06,0,0,1-40.43,4.16c-5.75,0-11.41-.39-17.1-.9-1.67-.16-3.35-.24-5-.47-7,7.57-20.2,21.38-36.83,36.23-16.88,15.09-35.67,26-46.06,31.45a284.91,284.91,0,0,0,230.34-8.76,303.9,303.9,0,0,0,85-61.62c.39-.39.79-.75,1.14-1.12C449.16,617.31,436.9,437.61,367.13,319.85Z" transform="translate(417.96 45.83)"/><path class="cls-3" d="M118.4,318.82C105,296.16,86.82,267.28,67,236.41c-17.58,26.64-35.26,53.51-51.24,78.48,15.92,24.92,17.47,29.63,28.3,48,3.22,5.45,6.24,11.09,9.19,16.93a9.89,9.89,0,0,0,.57,1.24c2.53,5.2,5,10.47,7.21,15.88,2.16,5.15,4.11,10.46,6,15.78.24.67.51,1.3.72,2q3.17,9.13,5.77,18.62c10.82,38.85,14.82,81,8.51,121-1.75,10.87-4,22.11-7.81,32.3C66.45,611.23,56,634.52,40.27,655.21a190.72,190.72,0,0,1-14.78,17.21,220.51,220.51,0,0,1-24,21.22c-4.87,3.82-10,7.2-15.11,10.53A216.38,216.38,0,0,1-52.21,723.6c-.88.29-14.71,4.42-32.95,10.21a196.18,196.18,0,0,1-38.65,3.9c-55.55,0-108.54-23.28-149.27-65.46-80.46-83.4-68.77-221.32-17-308.71,38.6-64.91,119.61-186.1,166.58-255.63,3,4.37,5.72,8.52,8.44,12.57,15.5,23,33.56,50,52.4,78.48,16.94-26,34.76-52.7,51.75-78.2C-56.85,51.51-84.56,11.08-87.7,6.46l-35.68-52.29L-159.11,6.42c-6,8.78-148,216.51-205.29,313-69.85,117.69-82.29,297.37,29.08,412.84,57.14,59.22,132.21,91.85,211.47,91.89A285.87,285.87,0,0,0,1.41,795.33,299.86,299.86,0,0,0,46.82,768a311,311,0,0,0,40.91-35.27c.39-.39.77-.72,1.14-1.14,5.7-5.91,10.91-12.08,16-18.32C198.8,597.94,184.6,430.66,118.4,318.82Z" transform="translate(417.96 45.83)"/></g><g class="cls-5"><path class="cls-3" d="M2287.13,319.85c-16.08-27.29-39-63.38-63.64-101.38-16.85-26.09-34.64-53-51.67-78.61-46-69.29-86.45-128.64-89.6-133.26l-35.67-52.29L2010.77,6.56c-3.14,4.62-43.59,63.77-89.63,132.93-17,25.62-34.82,52.54-51.74,78.6-24.76,38-47.72,74.2-63.88,101.5-4.08,6.9-8,14-11.62,21.24-.17.34-.37.62-.5,1-3.56,7-6.87,14.33-10,21.67-.26.55-.53,1.17-.76,1.73-3,7.27-5.85,14.63-8.48,22.18-.26.74-.53,1.48-.76,2.22-2.53,7.44-4.9,15-7,22.6-.27.89-.49,1.71-.74,2.59-2.08,7.62-3.87,15.32-5.49,23.1-.15.91-.38,1.85-.58,2.74-1.54,7.82-2.86,15.63-3.93,23.55-.16.92-.27,1.88-.4,2.84q-1.57,11.85-2.39,23.87c0,.9-.12,1.81-.15,2.72-.51,8.06-.75,16.08-.73,24.25v2.46c.08,8.22.47,16.37,1.12,24.53,0,.75.1,1.44.14,2.13.73,8.3,1.69,16.55,3,24.8.1.54.19,1.08.29,1.63q2,12.57,5.07,25c.08.34.15.71.27,1.06,2.07,8.42,4.52,16.81,7.33,25.09a1.07,1.07,0,0,1,.08.27c2.69,7.81,5.72,15.53,9.06,23.1.43,1.05.88,2.12,1.33,3.15,3.28,7.31,6.94,14.52,10.8,21.59.63,1.08,1.25,2.16,1.91,3.31,4.1,7.17,8.48,14.22,13.25,21.08.42.63.88,1.22,1.35,1.86,5.06,7.18,10.45,14.27,16.34,21.11a244.06,244.06,0,0,0,53.92-19.2,185.69,185.69,0,0,0,30.14-18.36c-3.61-3.21-7.16-6.49-10.57-10-80.46-83.4-68.78-221.32-17-308.72,10.9-18.31,25.23-41.22,41.17-66.1,16.18-25.24,34-52.49,51.73-79.42,26.82-40.53,53.36-80.14,73.69-110.1,20.23,30,46.84,69.74,73.61,110.36,17.78,27,35.58,54.22,51.65,79.48,15.89,24.83,30.13,47.69,41,66,51.71,87.45,63.29,225.38-17.27,308.69a225.85,225.85,0,0,1-23.93,21.14c-25.55,19.94-54.39,33.65-85,40a198.06,198.06,0,0,1-40.43,4.16c-5.75,0-11.41-.39-17.1-.9-1.67-.16-3.35-.24-5-.47-7,7.57-20.2,21.38-36.83,36.23-16.88,15.09-35.67,26-46.06,31.45a284.91,284.91,0,0,0,230.34-8.76,303.9,303.9,0,0,0,85-61.62c.39-.39.79-.75,1.14-1.12C2369.16,617.31,2356.9,437.61,2287.13,319.85Z" transform="translate(417.96 45.83)"/><path class="cls-3" d="M2038.4,318.82c-13.39-22.66-31.58-51.54-51.45-82.41-17.58,26.64-35.26,53.51-51.24,78.48,15.92,24.92,17.47,29.63,28.3,48,3.22,5.45,6.24,11.09,9.19,16.93a9.89,9.89,0,0,0,.57,1.24c2.53,5.2,5,10.47,7.21,15.88,2.16,5.15,4.11,10.46,6,15.78.24.67.51,1.3.72,2q3.16,9.13,5.77,18.62c10.82,38.85,14.82,81,8.51,121-1.75,10.87-4,22.11-7.81,32.3-7.76,24.66-18.24,47.95-33.94,68.64a190.72,190.72,0,0,1-14.78,17.21,220.51,220.51,0,0,1-24,21.22c-4.87,3.82-10,7.2-15.11,10.53a216.38,216.38,0,0,1-38.56,19.43c-.88.29-14.71,4.42-33,10.21a196.18,196.18,0,0,1-38.65,3.9c-55.55,0-108.54-23.28-149.27-65.46-80.46-83.4-68.77-221.32-17-308.71,38.6-64.91,119.61-186.1,166.58-255.63,3,4.37,5.72,8.52,8.44,12.57,15.5,23,33.56,50,52.4,78.48,16.94-26,34.76-52.7,51.75-78.2-46-69.25-73.69-109.68-76.83-114.3l-35.68-52.29L1760.89,6.42c-6,8.78-148,216.51-205.29,313-69.85,117.69-82.29,297.37,29.08,412.84,57.14,59.22,132.21,91.85,211.47,91.89a285.87,285.87,0,0,0,125.26-28.85A299.86,299.86,0,0,0,1966.82,768a311,311,0,0,0,40.91-35.27c.39-.39.77-.72,1.14-1.14,5.7-5.91,10.91-12.08,16-18.32C2118.8,597.94,2104.6,430.66,2038.4,318.82Z" transform="translate(417.96 45.83)"/></g></g></g></g></g></svg>