<svg xmlns="http://www.w3.org/2000/svg" xmlns:xlink="http://www.w3.org/1999/xlink" viewBox="0 0 106.2 110.19"><defs><style>.cls-1{fill:url(#linear-gradient);}.cls-2{fill:url(#linear-gradient-2);}</style><linearGradient id="linear-gradient" x1="36.43" y1="73.65" x2="101.21" y2="40.99" gradientUnits="userSpaceOnUse"><stop offset="0" stop-color="#5396d0"/><stop offset="0.21" stop-color="#5e9db0"/><stop offset="0.66" stop-color="#7aaf60"/><stop offset="1" stop-color="#90bd1f"/></linearGradient><linearGradient id="linear-gradient-2" x1="-40.94" y1="55.1" x2="76.78" y2="55.1" gradientUnits="userSpaceOnUse"><stop offset="0" stop-color="#09496b"/><stop offset="0.65" stop-color="#3c7eb0"/><stop offset="1" stop-color="#5396d0"/></linearGradient></defs><g id="Capa_2" data-name="Capa 2"><g id="Capa_1-2" data-name="Capa 1"><path class="cls-1" d="M99.43,46.28c-2-3.46-4.94-8-8.07-12.84-2.13-3.31-4.4-6.72-6.55-9.95C79,14.72,73.85,7.2,73.46,6.61L68.93,0,64.39,6.61c-.39.59-5.5,8.09-11.33,16.85-2.16,3.25-4.41,6.65-6.54,10-3.14,4.82-6.05,9.4-8.09,12.86-.52.88-1,1.78-1.47,2.69a.75.75,0,0,0-.07.12c-.45.9-.87,1.83-1.26,2.75a1.47,1.47,0,0,0-.1.22c-.39.92-.75,1.85-1.07,2.81,0,.08-.07.18-.1.29-.32.93-.62,1.88-.88,2.86,0,.11-.06.21-.1.32-.26,1-.48,1.94-.69,2.92,0,.12,0,.24-.07.36-.2,1-.36,2-.49,3,0,.12,0,.25-.06.37q-.2,1.5-.3,3c0,.1,0,.22,0,.33-.06,1-.09,2-.08,3.08v.31c0,1,0,2.07.14,3.11a2.35,2.35,0,0,0,0,.27c.09,1,.22,2.09.38,3.14,0,.06,0,.13,0,.2.16,1.06.38,2.12.64,3.17l0,.13c.26,1.06.57,2.13.93,3.18a.08.08,0,0,0,0,0c.34,1,.72,2,1.15,2.91.05.14.11.27.17.41.41.93.87,1.84,1.36,2.72l.24.43c.53.91,1.08,1.8,1.68,2.67l.18.23A32.52,32.52,0,0,0,40.72,97a30.34,30.34,0,0,0,6.82-2.43,24.11,24.11,0,0,0,3.82-2.32c-.46-.42-.91-.82-1.34-1.28-10.2-10.56-8.73-28-2.17-39.1,1.37-2.32,3.19-5.22,5.21-8.38s4.29-6.65,6.54-10.06c3.4-5.14,6.76-10.15,9.33-14,2.56,3.8,5.94,8.83,9.33,14,2.25,3.41,4.52,6.87,6.55,10.06s3.82,6,5.2,8.36C96.56,62.94,98,80.4,87.85,91a31.69,31.69,0,0,1-3,2.68,26.28,26.28,0,0,1-10.76,5.08,25,25,0,0,1-5.12.52c-.72,0-1.44,0-2.17-.11l-.63,0c-.88,1-2.55,2.7-4.66,4.58a30.08,30.08,0,0,1-5.84,4,36.1,36.1,0,0,0,29.18-1.14,38.18,38.18,0,0,0,10.77-7.79c0-.06.1-.1.14-.15C109.84,84,108.27,61.19,99.43,46.28Z"/><path class="cls-2" d="M67.93,46.17c-1.71-2.87-4-6.53-6.53-10.44-2.22,3.38-4.46,6.78-6.48,10,2,3.15,2.21,3.75,3.59,6.08.4.68.78,1.4,1.16,2.14l.07.16c.33.66.63,1.32.92,2s.52,1.34.76,2c0,.09.06.17.09.25.27.77.52,1.56.73,2.36A36.44,36.44,0,0,1,63.33,76a21,21,0,0,1-1,4.09,28.41,28.41,0,0,1-4.28,8.69A26.12,26.12,0,0,1,56.17,91a24.9,24.9,0,0,1-3,2.69A22.35,22.35,0,0,1,51.23,95a27.7,27.7,0,0,1-4.89,2.47c-.12,0-1.86.56-4.17,1.29a24.32,24.32,0,0,1-4.9.5A26.23,26.23,0,0,1,18.35,91c-10.18-10.56-8.71-28-2.16-39.1,4.89-8.22,15.14-23.59,21.08-32.39.37.55.72,1.07,1.08,1.59L45,31c2.14-3.3,4.4-6.68,6.55-9.91C45.71,12.32,42.2,7.2,41.79,6.61L37.27,0,32.75,6.61C32,7.72,14,34.05,6.77,46.28-2.07,61.19-3.63,84,10.48,98.57a37.07,37.07,0,0,0,26.79,11.62,36.17,36.17,0,0,0,15.86-3.65,38.13,38.13,0,0,0,5.76-3.47,40.09,40.09,0,0,0,5.18-4.46c0-.06.09-.09.14-.16.72-.74,1.38-1.52,2-2.32C78.12,81.51,76.32,60.33,67.93,46.17Z"/></g></g></svg>