<svg xmlns="http://www.w3.org/2000/svg" viewBox="0 0 38.07 29.91"><defs><style>.cls-1{fill:#fff;}</style></defs><g id="Capa_2" data-name="Capa 2"><g id="Capa_1-2" data-name="Capa 1"><path class="cls-1" d="M32.57,0H5.5A5.51,5.51,0,0,0,0,5.5V24.41a5.51,5.51,0,0,0,5.5,5.5H32.57a5.51,5.51,0,0,0,5.5-5.5V5.5A5.51,5.51,0,0,0,32.57,0Zm0,2.63a3.51,3.51,0,0,1,.66.07l-11.43,13a3.68,3.68,0,0,1-5.53,0L4.84,2.7a3.51,3.51,0,0,1,.66-.07Zm2.87,21.78a2.87,2.87,0,0,1-2.87,2.87H5.5a2.87,2.87,0,0,1-2.87-2.87V5.5a2.79,2.79,0,0,1,.21-1.09l11.46,13a6.31,6.31,0,0,0,9.47,0l11.46-13a2.79,2.79,0,0,1,.21,1.09Z"/></g></g></svg>