<svg xmlns="http://www.w3.org/2000/svg" viewBox="0 0 23.24 29.89"><defs><style>.cls-1{fill:#fff;}</style></defs><g id="Capa_2" data-name="Capa 2"><g id="Capa_1-2" data-name="Capa 1"><path class="cls-1" d="M11.62,29.89h0a1,1,0,0,1-.76-.34C10.41,29.08,0,17.8,0,11.62a11.62,11.62,0,0,1,23.24,0c0,6.18-10.42,17.46-10.86,17.93A1,1,0,0,1,11.62,29.89Zm0-27.81a9.55,9.55,0,0,0-9.54,9.54c0,4.1,6.3,12,9.54,15.68,3.23-3.64,9.54-11.58,9.54-15.68A9.55,9.55,0,0,0,11.62,2.08Z"/><path class="cls-1" d="M11.62,16.34a5.23,5.23,0,1,1,5.23-5.23A5.23,5.23,0,0,1,11.62,16.34Zm0-8.38a3.15,3.15,0,1,0,3.15,3.15A3.15,3.15,0,0,0,11.62,8Z"/></g></g></svg>