<svg xmlns="http://www.w3.org/2000/svg" viewBox="0 0 72.35 72.35"><defs><style>.cls-1{fill:#d31e5a;}.cls-2{fill:#fff;}</style></defs><g id="Capa_2" data-name="Capa 2"><g id="Capa_1-2" data-name="Capa 1"><circle class="cls-1" cx="36.17" cy="36.18" r="36.18"/><path class="cls-2" d="M47.4,22.49A2.49,2.49,0,1,0,49.89,25,2.48,2.48,0,0,0,47.4,22.49Z"/><path class="cls-2" d="M36.35,25.68A10.45,10.45,0,1,0,46.79,36.12,10.46,10.46,0,0,0,36.35,25.68Zm0,17.14A6.7,6.7,0,1,1,43,36.12,6.7,6.7,0,0,1,36.35,42.82Z"/><path class="cls-2" d="M44.64,57.33H27.71A12.75,12.75,0,0,1,15,44.59V27.66A12.75,12.75,0,0,1,27.71,14.92H44.64A12.75,12.75,0,0,1,57.38,27.66V44.59A12.75,12.75,0,0,1,44.64,57.33ZM27.71,18.91A8.75,8.75,0,0,0,19,27.66V44.59a8.75,8.75,0,0,0,8.75,8.75H44.64a8.75,8.75,0,0,0,8.75-8.75V27.66a8.75,8.75,0,0,0-8.75-8.75Z"/></g></g></svg>