<svg xmlns="http://www.w3.org/2000/svg" viewBox="0 0 72.35 72.35"><defs><style>.cls-1{fill:#244c9a;}.cls-2{fill:#fff;}</style></defs><g id="Capa_2" data-name="Capa 2"><g id="Capa_1-2" data-name="Capa 1"><path class="cls-1" d="M72.35,36.17A36.18,36.18,0,1,0,30.52,71.91V46.63H21.34V36.17h9.18v-8c0-9.07,5.4-14.08,13.67-14.08a55.34,55.34,0,0,1,8.09.71v8.9H47.72c-4.49,0-5.89,2.79-5.89,5.65v6.78h10l-1.6,10.46H41.83V71.91A36.18,36.18,0,0,0,72.35,36.17Z"/><path class="cls-2" d="M50.26,46.63l1.6-10.46h-10V29.39c0-2.86,1.4-5.65,5.89-5.65h4.56v-8.9a55.34,55.34,0,0,0-8.09-.71c-8.27,0-13.67,5-13.67,14.08v8H21.34V46.63h9.18V71.91a36.56,36.56,0,0,0,11.31,0V46.63Z"/></g></g></svg>