<svg xmlns="http://www.w3.org/2000/svg" xmlns:xlink="http://www.w3.org/1999/xlink" viewBox="0 0 667.76 112.93"><defs><style>.cls-1{fill:#a62024;}.cls-2{fill:#00476b;}.cls-3{fill:url(#linear-gradient);}.cls-4{fill:url(#linear-gradient-2);}</style><linearGradient id="linear-gradient" x1="36.43" y1="73.65" x2="101.21" y2="40.99" gradientUnits="userSpaceOnUse"><stop offset="0" stop-color="#5396d0"/><stop offset="0.21" stop-color="#5e9db0"/><stop offset="0.66" stop-color="#7aaf60"/><stop offset="1" stop-color="#90bd1f"/></linearGradient><linearGradient id="linear-gradient-2" x1="-40.94" y1="55.1" x2="76.78" y2="55.1" gradientUnits="userSpaceOnUse"><stop offset="0" stop-color="#09496b"/><stop offset="0.65" stop-color="#3c7eb0"/><stop offset="1" stop-color="#5396d0"/></linearGradient></defs><g id="Capa_2" data-name="Capa 2"><g id="Capa_1-2" data-name="Capa 1"><path class="cls-1" d="M137.85,42.22H126.09V30.53h37.17V42.22H151.5v34H137.85Z"/><path class="cls-1" d="M164.56,60.05c0-10.91,7.45-17.18,18.75-17.18,10.78,0,18.29,6.21,18.29,15.48a28.89,28.89,0,0,1-.33,4.77H177.36c.14,3.4,2.55,5.23,6.21,5.23,2.68,0,4.44-.59,5.09-2.22h12.41c-1.17,6.86-8,11-17.5,11C171.88,77.16,164.56,71.15,164.56,60.05Zm24.24-4c-.07-3.53-2-5.49-5.62-5.49s-5.68,2.15-5.82,5.49Z"/><path class="cls-1" d="M206.29,43.79H219.1V51c1.18-5,4.9-7.91,9.34-7.91a12.52,12.52,0,0,1,2.42.2V55.41a18.43,18.43,0,0,0-3.27-.26c-5.74,0-8.49,3.2-8.49,10.19V76.25H206.29Z"/><path class="cls-1" d="M235.62,43.79h12.8v4.76c1.44-3.46,4.71-5.68,9.61-5.68,5.62,0,8.62,2.42,10.12,6.14,1.83-3.79,5.75-6.14,10.65-6.14,9,0,11.43,6.08,11.43,13.52V76.25H277.17V58.74c0-3.78-1.31-5.16-3.73-5.16s-4.11,1.7-4.11,6.41V76.25H256.26V58.74c0-3.78-1.24-5.16-3.66-5.16-2.74,0-4.18,1.7-4.18,6.41V76.25h-12.8Z"/><path class="cls-1" d="M294.6,60c0-10.26,7.38-17.12,18.88-17.12S332.42,49.73,332.42,60,325,77.16,313.48,77.16,294.6,70.24,294.6,60Zm24.95,0c0-4-2.28-6.6-6.07-6.6S307.4,56,307.4,60s2.36,6.59,6.08,6.59S319.55,64,319.55,60Z"/><path class="cls-2" d="M338.19,61.29H349c0,5,2.86,7.9,7.59,7.9,4,0,6.27-1.83,6.27-5,0-2.82-1.47-4.25-5.67-5.88l-8.39-3.21c-6.27-2.28-9.46-6.53-9.46-12.47,0-8,6.46-13.39,16.59-13.39S373,34.9,373,43.72H362.18c0-4.25-2.27-6.6-6.46-6.6-3.54,0-5.6,1.77-5.6,4.51,0,2.55,1.8,4.11,6.4,5.94l7.72,3c6.47,2.48,9.4,6.73,9.4,12.87,0,8.55-6.79,14.11-17.12,14.11C345.06,77.56,338.19,71.55,338.19,61.29Z"/><path class="cls-2" d="M376,60.51c0-9.61,6.8-16.59,17.86-16.59s17.79,7,17.79,16.59-6.8,16.59-17.79,16.59S376,70.11,376,60.51Zm25.52,0c0-4.77-2.86-8.17-7.66-8.17s-7.66,3.4-7.66,8.17,2.8,8.16,7.66,8.16S401.55,65.27,401.55,60.51Z"/><path class="cls-2" d="M416.54,30.53h10.19V76.25H416.54Z"/><path class="cls-2" d="M433.79,64.23V44.77h10.33V62c0,4.31,1.46,6.66,5.33,6.66,4.33,0,6.2-2.74,6.2-7V44.77h10.12V76.25H455.65V71.74c-1.8,3.33-5.13,5.36-10,5.36C437.92,77.1,433.79,72.4,433.79,64.23Z"/><path class="cls-2" d="M470.7,60.51c0-9.93,6.6-16.59,17.19-16.59,9.6,0,15.85,5,16.66,12.8h-10.2c-.73-2.94-2.66-4.31-6.39-4.31-4.4,0-7.07,2.87-7.07,8.1s2.67,8.1,7.07,8.1c3.73,0,5.66-1.31,6.39-4h10.2c-.81,7.64-7.06,12.54-16.66,12.54C477.3,77.1,470.7,70.44,470.7,60.51Z"/><path class="cls-2" d="M508.14,35.36a6.33,6.33,0,0,1,12.66,0,6.33,6.33,0,0,1-12.66,0Zm1.27,9.41h10.12V76.25H509.41Z"/><path class="cls-2" d="M524.46,60.51c0-9.61,6.8-16.59,17.86-16.59s17.78,7,17.78,16.59S553.31,77.1,542.32,77.1,524.46,70.11,524.46,60.51Zm25.52,0c0-4.77-2.87-8.17-7.66-8.17s-7.67,3.4-7.67,8.17,2.8,8.16,7.67,8.16S550,65.27,550,60.51Z"/><path class="cls-2" d="M565,44.77h10.2v4.57c1.87-3.53,5.53-5.42,10.39-5.42,7.8,0,11.73,4.31,11.73,12.87V76.25H587V60.05c0-5.29-1.53-7.71-5.66-7.71s-6.2,2.62-6.2,7.45V76.25H565Z"/><path class="cls-2" d="M601.87,60.51c0-10.32,6.86-16.59,17.33-16.59,10,0,16.78,6.07,16.78,15a33.3,33.3,0,0,1-.26,4.37H612c.2,4.11,3,6.34,7.53,6.34,3.13,0,5.13-.85,6-2.81h10c-1,6.21-7.46,10.32-16,10.32C608.6,77.1,601.87,71,601.87,60.51Zm24-3.46c-.06-4.18-2.46-6.41-6.79-6.41s-7.06,2.55-7.13,6.41Z"/><path class="cls-2" d="M638.52,66.78h10.12c0,2.15,2.13,3.66,5.26,3.66,2.2,0,3.73-1,3.73-2.88,0-1.43-.72-2.29-3.46-2.94L647.44,63c-5.13-1.24-8.06-4.44-8.06-9.21,0-6,5.46-9.86,13.72-9.86,9.07,0,14.33,3.46,14.33,9.73H657.37c0-2.22-1.66-3.4-4.4-3.4-2.2,0-3.66,1-3.66,2.55s.93,2.35,3.53,3l6.79,1.83c5.07,1.31,8.13,4.31,8.13,9.08,0,6.53-5.53,10.39-14.06,10.39C644.58,77.1,638.52,72.92,638.52,66.78Z"/><path class="cls-2" d="M235.36,107.89V89.59h12.15V93h-10l2-2.78v17l-1.75-2.78h9.86v3.45Zm3.17-7.61V97.06h8.58v3.22h-8.58Z"/><path class="cls-2" d="M249.39,107.89c.33-.6.62-1.12.88-1.55s.5-.86.72-1.26l.72-1.26,1.71-3v.83l-1.71-2.76c-.26-.43-.52-.83-.76-1.21l-.74-1.2c-.26-.42-.55-.9-.89-1.44l4.28-.11c.27.51.52,1,.74,1.42s.45.9.69,1.39l.93,1.79h.28l.9-1.78.67-1.34c.2-.42.43-.87.68-1.37h4.32l-.93,1.45-.74,1.14c-.23.36-.48.77-.77,1.21l-1.78,2.77-.21-.82,2,3,1.22,1.84c.38.59.86,1.31,1.41,2.18h-4.56c-.25-.47-.48-.9-.68-1.29l-.67-1.3-1-2h-.26l-.91,1.88c-.23.48-.44.93-.64,1.32l-.67,1.36Z"/><path class="cls-2" d="M265,112.93V95.08l3.4-.19.11,1.76h.31a4.23,4.23,0,0,1,.93-1A4.07,4.07,0,0,1,271,95a4.92,4.92,0,0,1,1.53-.22,4.54,4.54,0,0,1,2.84.88A5.38,5.38,0,0,1,277.13,98a9.58,9.58,0,0,1,.59,3.44,9.78,9.78,0,0,1-.56,3.33,5.75,5.75,0,0,1-1.7,2.49,4.37,4.37,0,0,1-2.89.95,4.44,4.44,0,0,1-1.41-.22,4,4,0,0,1-1.15-.59,5.12,5.12,0,0,1-.93-.93h-.23v6.32Zm6.1-8a2.24,2.24,0,0,0,1.51-.51,2.92,2.92,0,0,0,.88-1.28,5,5,0,0,0,.28-1.69,5.06,5.06,0,0,0-.29-1.73,2.92,2.92,0,0,0-.89-1.26A2.33,2.33,0,0,0,271.1,98a2.83,2.83,0,0,0-.87.14,2.79,2.79,0,0,0-.77.39,2.94,2.94,0,0,0-.61.61v4.37a3.61,3.61,0,0,0,.55.76,2.35,2.35,0,0,0,1.72.68Z"/><path class="cls-2" d="M286.63,108.22a8.3,8.3,0,0,1-4.05-.87,5.46,5.46,0,0,1-2.31-2.4,8,8,0,0,1-.74-3.5,8.24,8.24,0,0,1,.7-3.49,5.33,5.33,0,0,1,2.08-2.37,6.47,6.47,0,0,1,3.42-.84,6.7,6.7,0,0,1,3,.61,4.29,4.29,0,0,1,1.91,1.88,6.77,6.77,0,0,1,.67,3.17c0,.34,0,.64,0,.91s0,.54-.09.79l-3.28-1.24c0-.12,0-.24,0-.35s0-.23,0-.34a3.15,3.15,0,0,0-.61-2,2,2,0,0,0-1.59-.73,2,2,0,0,0-1.28.43,2.79,2.79,0,0,0-.89,1.2,4.79,4.79,0,0,0-.32,1.83v.63a4.22,4.22,0,0,0,.41,1.92,2.69,2.69,0,0,0,1.25,1.22,4.74,4.74,0,0,0,2.17.43,9.22,9.22,0,0,0,1.18-.1,10.44,10.44,0,0,0,1.38-.31,7.46,7.46,0,0,0,1.3-.5l.13,3.23a9.58,9.58,0,0,1-1.16.42,10.81,10.81,0,0,1-1.5.29A12.56,12.56,0,0,1,286.63,108.22ZM281,102.11v-2l7.95-.16,2.23.61v1.59Z"/><path class="cls-2" d="M293.72,107.89V95.08l3.22-.19.17,2.36h.32a5,5,0,0,1,1.1-1.58,3.32,3.32,0,0,1,1.24-.74,4,4,0,0,1,1.86-.14,2.5,2.5,0,0,1,.69.18L302,98.69l-.9-.07-.85,0a3.78,3.78,0,0,0-.74.07,2.48,2.48,0,0,0-.74.31,2.65,2.65,0,0,0-.66.64,3.81,3.81,0,0,0-.54,1.07v7.2Z"/><path class="cls-2" d="M303.2,98V95.08h9.68V98H303.2Zm6.59,10.27a6.1,6.1,0,0,1-2.43-.44,3,3,0,0,1-1.54-1.37,5.08,5.08,0,0,1-.54-2.51v-13l3.78-.68v12.48a3,3,0,0,0,.43,1.77,1.57,1.57,0,0,0,1.4.61,3.18,3.18,0,0,0,1.84-.61l.21,3.1a3,3,0,0,1-.84.35,8.89,8.89,0,0,1-1.12.22A9.64,9.64,0,0,1,309.79,108.24Z"/><path class="cls-2" d="M321.2,108.24a7.64,7.64,0,0,1-3-.56,5.82,5.82,0,0,1-2.13-1.5,6.37,6.37,0,0,1-1.26-2.17,7.85,7.85,0,0,1-.41-2.56,7.44,7.44,0,0,1,.77-3.44,5.81,5.81,0,0,1,2.29-2.4,7.29,7.29,0,0,1,3.7-.87,8,8,0,0,1,3,.5,5.72,5.72,0,0,1,2.13,1.43,6,6,0,0,1,1.28,2.14,8.12,8.12,0,0,1,.42,2.64,7.54,7.54,0,0,1-.78,3.47,5.93,5.93,0,0,1-2.29,2.42A7,7,0,0,1,321.2,108.24Zm0-3.14a2.4,2.4,0,0,0,1.59-.52,3.15,3.15,0,0,0,.93-1.35,5,5,0,0,0,.32-1.78,4.65,4.65,0,0,0-.36-1.93,2.74,2.74,0,0,0-1-1.23,2.68,2.68,0,0,0-1.49-.42,2.61,2.61,0,0,0-1.6.47,2.9,2.9,0,0,0-1,1.28,5.1,5.1,0,0,0,0,3.61,3.06,3.06,0,0,0,1,1.35A2.47,2.47,0,0,0,321.18,105.1Z"/><path class="cls-2" d="M334.31,108.22a14.92,14.92,0,0,1-1.81-.11,13,13,0,0,1-1.58-.31,7.64,7.64,0,0,1-1.26-.45l.24-3.25a7.88,7.88,0,0,0,1.27.61,9.75,9.75,0,0,0,1.43.4,7.48,7.48,0,0,0,1.47.15,3.71,3.71,0,0,0,.9-.1,1.24,1.24,0,0,0,.66-.35,1.1,1.1,0,0,0,.23-.75.76.76,0,0,0-.25-.59,2.75,2.75,0,0,0-.85-.43c-.39-.13-.93-.28-1.59-.45a7.85,7.85,0,0,1-1.92-.75,3.18,3.18,0,0,1-1.18-1.18,4.25,4.25,0,0,1,.85-4.84,5.17,5.17,0,0,1,3.44-1.07,12,12,0,0,1,1.84.13,15,15,0,0,1,1.58.34,8.49,8.49,0,0,1,1.2.43l-.26,3.28a5.68,5.68,0,0,0-1.28-.64,9.46,9.46,0,0,0-1.32-.37,5.13,5.13,0,0,0-1.05-.13,2.47,2.47,0,0,0-.75.11,1.1,1.1,0,0,0-.53.35,1,1,0,0,0-.2.64,1,1,0,0,0,.17.59,1.53,1.53,0,0,0,.62.46,7.22,7.22,0,0,0,1.35.45,13.4,13.4,0,0,1,2.28.81,3.09,3.09,0,0,1,1.32,1.09,3.27,3.27,0,0,1,.42,1.77,4.18,4.18,0,0,1-.56,2.18,3.79,3.79,0,0,1-1.76,1.46A7.87,7.87,0,0,1,334.31,108.22Z"/><path class="cls-2" d="M353.4,108.22a8.28,8.28,0,0,1-4-.87,5.46,5.46,0,0,1-2.31-2.4,8,8,0,0,1-.74-3.5A8.24,8.24,0,0,1,347,98a5.33,5.33,0,0,1,2.08-2.37,6.47,6.47,0,0,1,3.42-.84,6.7,6.7,0,0,1,3,.61,4.29,4.29,0,0,1,1.91,1.88,6.77,6.77,0,0,1,.67,3.17c0,.34,0,.64,0,.91s-.05.54-.09.79l-3.28-1.24,0-.35c0-.12,0-.23,0-.34a3.15,3.15,0,0,0-.61-2,2,2,0,0,0-1.59-.73,2,2,0,0,0-1.28.43,2.79,2.79,0,0,0-.89,1.2,4.79,4.79,0,0,0-.32,1.83v.63a4.22,4.22,0,0,0,.41,1.92,2.69,2.69,0,0,0,1.25,1.22,4.71,4.71,0,0,0,2.17.43,9.22,9.22,0,0,0,1.18-.1,10.44,10.44,0,0,0,1.38-.31,7.46,7.46,0,0,0,1.3-.5l.13,3.23a9.58,9.58,0,0,1-1.16.42,10.81,10.81,0,0,1-1.5.29A12.61,12.61,0,0,1,353.4,108.22Zm-5.62-6.11v-2l8-.16,2.23.61v1.59Z"/><path class="cls-2" d="M360.5,107.89V95.08l3.22-.19.17,2.23h.32A6.39,6.39,0,0,1,365.26,96a4.91,4.91,0,0,1,1.42-.88,4.74,4.74,0,0,1,1.83-.33,3.64,3.64,0,0,1,2.91,1.13,5,5,0,0,1,1,3.39v8.63h-3.82V100.5a3.1,3.1,0,0,0-.38-1.7,1.47,1.47,0,0,0-1.33-.57,2.31,2.31,0,0,0-1,.22,3.24,3.24,0,0,0-.84.6,4.91,4.91,0,0,0-.68.84v8Z"/><path class="cls-2" d="M386.36,108.17a7.31,7.31,0,0,1-3.7-.87,5.77,5.77,0,0,1-2.31-2.36,7.23,7.23,0,0,1-.79-3.43,7.92,7.92,0,0,1,.73-3.47,5.63,5.63,0,0,1,2.2-2.41,6.86,6.86,0,0,1,3.62-.88,10.88,10.88,0,0,1,1.52.11,11,11,0,0,1,1.42.32,6.66,6.66,0,0,1,1.2.49L390,99a7.53,7.53,0,0,0-1.34-.63,5.48,5.48,0,0,0-1.09-.28,6,6,0,0,0-.88-.08,3,3,0,0,0-2.31.92,3.47,3.47,0,0,0-.87,2.49,4,4,0,0,0,.43,1.88,3.11,3.11,0,0,0,1.27,1.27,4.22,4.22,0,0,0,2.07.46,5,5,0,0,0,.95-.09,5.64,5.64,0,0,0,.95-.27,4.42,4.42,0,0,0,.89-.46l.19,3.31a5.68,5.68,0,0,1-1,.34,9.93,9.93,0,0,1-1.27.24A12.6,12.6,0,0,1,386.36,108.17Z"/><path class="cls-2" d="M392.68,107.89V89.08l3.84-.34v19.15Z"/><path class="cls-2" d="M401.64,93.11a2.63,2.63,0,0,1-1.7-.51,2,2,0,0,1-.63-1.65,2,2,0,0,1,.63-1.57,2.53,2.53,0,0,1,1.73-.55,2.44,2.44,0,0,1,1.71.57,2.36,2.36,0,0,1,0,3.2A2.66,2.66,0,0,1,401.64,93.11Zm-1.89,14.78V95.08l3.84-.11v12.92Z"/><path class="cls-2" d="M406.83,107.89V95.08l3.22-.19.16,2.22h.32a7.45,7.45,0,0,1,1-1.16,4.53,4.53,0,0,1,1.37-.88,4.42,4.42,0,0,1,1.76-.33,3.28,3.28,0,0,1,2.29.73,3.81,3.81,0,0,1,1.1,2.13l.26,0q.07.38.12.78a7.81,7.81,0,0,1,0,.85v8.63h-3.83V100.5a3.21,3.21,0,0,0-.36-1.7,1.34,1.34,0,0,0-1.25-.57,2,2,0,0,0-1,.23,2.89,2.89,0,0,0-.8.61,5.15,5.15,0,0,0-.64.82v8Zm15.63,0V100.5a3.32,3.32,0,0,0-.35-1.7,1.35,1.35,0,0,0-1.26-.57,2.05,2.05,0,0,0-1,.22,3.05,3.05,0,0,0-.8.6,5.24,5.24,0,0,0-.65.84l-.58-2.76h.33A8.48,8.48,0,0,1,419.27,96a5.14,5.14,0,0,1,1.42-.88,4.73,4.73,0,0,1,1.8-.33,3.5,3.5,0,0,1,2.86,1.14,5.24,5.24,0,0,1,.94,3.38v8.63Z"/><path class="cls-2" d="M432.23,108.2a3.85,3.85,0,0,1-1.92-.47,3.23,3.23,0,0,1-1.29-1.3,4.19,4.19,0,0,1-.46-2,3.89,3.89,0,0,1,.39-1.84,3.55,3.55,0,0,1,1-1.2,4.54,4.54,0,0,1,1.34-.71,9.54,9.54,0,0,1,1.42-.36l3.56-.56a1.69,1.69,0,0,0-.27-1.15,1.57,1.57,0,0,0-.89-.58,4.93,4.93,0,0,0-1.4-.17,6.55,6.55,0,0,0-.95.07c-.33,0-.69.12-1.07.21s-.77.21-1.17.35-.79.31-1.19.5l-.18-3.26c.32-.12.68-.24,1.09-.36s.86-.23,1.34-.33a14.2,14.2,0,0,1,1.52-.24c.53,0,1.08-.07,1.65-.07a7.24,7.24,0,0,1,2.74.46,3.6,3.6,0,0,1,1.75,1.46,5.06,5.06,0,0,1,.6,2.62v8.6h-3.3l-.24-1.72H436a6,6,0,0,1-.88,1,4.75,4.75,0,0,1-1.25.76A4.26,4.26,0,0,1,432.23,108.2Zm1.53-3a2,2,0,0,0,.89-.21,3.21,3.21,0,0,0,.84-.61,3.82,3.82,0,0,0,.67-.93v-2a1.75,1.75,0,0,1-.39.22,4.8,4.8,0,0,1-.69.2c-.31.07-.73.17-1.28.28a2.24,2.24,0,0,0-.79.3,1.58,1.58,0,0,0-.7,1.36,1.21,1.21,0,0,0,.44,1.05A1.7,1.7,0,0,0,433.76,105.24Z"/><path class="cls-2" d="M441.64,98V95.08h9.67V98h-9.67Zm6.58,10.27a6.1,6.1,0,0,1-2.43-.44,3.12,3.12,0,0,1-1.54-1.37,5.2,5.2,0,0,1-.53-2.51v-13l3.77-.68v12.48a3,3,0,0,0,.43,1.77,1.6,1.6,0,0,0,1.41.61,3.19,3.19,0,0,0,1.83-.61l.22,3.1a3.06,3.06,0,0,1-.85.35,8.39,8.39,0,0,1-1.11.22A9.8,9.8,0,0,1,448.22,108.24Z"/><path class="cls-2" d="M455.55,93.11a2.63,2.63,0,0,1-1.7-.51,2,2,0,0,1-.64-1.65,2,2,0,0,1,.64-1.57,2.53,2.53,0,0,1,1.73-.55,2.45,2.45,0,0,1,1.71.57,2.36,2.36,0,0,1,0,3.2A2.66,2.66,0,0,1,455.55,93.11Zm-1.89,14.78V95.08L457.5,95v12.92Z"/><path class="cls-2" d="M460,107.89v-1.8l1.86-2.43,1.75-2.28L467,96.87l.46,1.12h-7.4V95.08h11.16v2.14l-1,1.32L469,100.07l-1.17,1.52-3.34,4.31-.36-.92h7.45v2.91Z"/><path class="cls-2" d="M477,108.2a3.86,3.86,0,0,1-1.93-.47,3.27,3.27,0,0,1-1.28-1.3,4.08,4.08,0,0,1-.46-2,4,4,0,0,1,.38-1.84,3.57,3.57,0,0,1,1-1.2,4.61,4.61,0,0,1,1.33-.71,10.2,10.2,0,0,1,1.42-.36l3.57-.56a1.81,1.81,0,0,0-.27-1.15,1.63,1.63,0,0,0-.9-.58,4.83,4.83,0,0,0-1.4-.17,6.41,6.41,0,0,0-.94.07q-.51.08-1.08.21c-.38.1-.77.21-1.16.35s-.79.31-1.19.5l-.18-3.26c.31-.12.68-.24,1.09-.36s.86-.23,1.34-.33a13.81,13.81,0,0,1,1.52-.24c.53,0,1.08-.07,1.64-.07a7.29,7.29,0,0,1,2.75.46A3.54,3.54,0,0,1,484,96.67a5,5,0,0,1,.61,2.62v8.6h-3.3l-.25-1.72h-.28a5.22,5.22,0,0,1-.88,1,4.44,4.44,0,0,1-1.25.76A4.21,4.21,0,0,1,477,108.2Zm1.53-3a2.07,2.07,0,0,0,.89-.21,3.34,3.34,0,0,0,.83-.61,3.85,3.85,0,0,0,.68-.93v-2a2,2,0,0,1-.39.22,4.8,4.8,0,0,1-.69.2l-1.28.28a2.17,2.17,0,0,0-.79.3,1.74,1.74,0,0,0-.52.56,1.71,1.71,0,0,0-.18.8,1.19,1.19,0,0,0,.44,1.05A1.68,1.68,0,0,0,478.51,105.24Z"/><path class="cls-2" d="M493.6,108.17a7.31,7.31,0,0,1-3.7-.87,5.77,5.77,0,0,1-2.31-2.36,7.23,7.23,0,0,1-.79-3.43,7.92,7.92,0,0,1,.73-3.47,5.63,5.63,0,0,1,2.2-2.41,6.86,6.86,0,0,1,3.62-.88,10.88,10.88,0,0,1,1.52.11,11.4,11.4,0,0,1,1.42.32,6.66,6.66,0,0,1,1.2.49L497.2,99a7.53,7.53,0,0,0-1.34-.63,5.48,5.48,0,0,0-1.09-.28,6,6,0,0,0-.88-.08,3,3,0,0,0-2.31.92,3.47,3.47,0,0,0-.87,2.49,4,4,0,0,0,.43,1.88,3.11,3.11,0,0,0,1.27,1.27,4.22,4.22,0,0,0,2.07.46,5,5,0,0,0,.95-.09,5.64,5.64,0,0,0,.95-.27,4.42,4.42,0,0,0,.89-.46l.19,3.31a5.68,5.68,0,0,1-1,.34,9.93,9.93,0,0,1-1.27.24A12.6,12.6,0,0,1,493.6,108.17Z"/><path class="cls-2" d="M501.89,93.11a2.63,2.63,0,0,1-1.7-.51,2,2,0,0,1-.64-1.65,1.92,1.92,0,0,1,.64-1.57,2.52,2.52,0,0,1,1.72-.55,2.46,2.46,0,0,1,1.72.57,2.36,2.36,0,0,1,0,3.2A2.68,2.68,0,0,1,501.89,93.11ZM500,107.89V95.08l3.84-.11v12.92Z"/><path class="cls-2" d="M513.22,108.24a7.64,7.64,0,0,1-3-.56,5.82,5.82,0,0,1-2.13-1.5A6.19,6.19,0,0,1,506.8,104a7.85,7.85,0,0,1-.42-2.56,7.57,7.57,0,0,1,.77-3.44,5.81,5.81,0,0,1,2.29-2.4,7.29,7.29,0,0,1,3.7-.87,8,8,0,0,1,3,.5,5.72,5.72,0,0,1,2.13,1.43,5.88,5.88,0,0,1,1.28,2.14,8.12,8.12,0,0,1,.42,2.64,7.54,7.54,0,0,1-.78,3.47,5.84,5.84,0,0,1-2.28,2.42A7,7,0,0,1,513.22,108.24Zm0-3.14a2.35,2.35,0,0,0,1.58-.52,3.16,3.16,0,0,0,.94-1.35,5,5,0,0,0,.31-1.78,4.65,4.65,0,0,0-.36-1.93,2.74,2.74,0,0,0-1-1.23,2.65,2.65,0,0,0-1.49-.42,2.58,2.58,0,0,0-1.59.47,2.92,2.92,0,0,0-1,1.28,5.1,5.1,0,0,0,0,3.61,3.08,3.08,0,0,0,1,1.35A2.45,2.45,0,0,0,513.21,105.1Zm-2.55-11.73,1.6-2.68L513.85,88l4-.09-1.46,1.83-1.44,1.8-1.41,1.76Z"/><path class="cls-2" d="M522.41,107.89V95.08l3.22-.19.16,2.23h.32A6.45,6.45,0,0,1,527.17,96a4.86,4.86,0,0,1,1.41-.88,4.81,4.81,0,0,1,1.83-.33,3.65,3.65,0,0,1,2.92,1.13,5.1,5.1,0,0,1,1,3.39v8.63h-3.82V100.5a3.11,3.11,0,0,0-.37-1.7,1.48,1.48,0,0,0-1.34-.57,2.29,2.29,0,0,0-1,.22,3.28,3.28,0,0,0-.85.6,6.09,6.09,0,0,0-.68.84v8Z"/><path class="cls-2" d="M539.06,108.24a2.54,2.54,0,0,1-1.27-.31,2.23,2.23,0,0,1-.83-.84,2.49,2.49,0,0,1-.28-1.19,2.19,2.19,0,0,1,.64-1.64,2.35,2.35,0,0,1,1.75-.65,2.66,2.66,0,0,1,1.28.29,2.06,2.06,0,0,1,.82.81,2.32,2.32,0,0,1-2.11,3.53Z"/><path class="cls-3" d="M99.43,46.28c-2-3.46-4.94-8-8.07-12.84-2.13-3.31-4.4-6.72-6.55-9.95C79,14.72,73.85,7.2,73.46,6.61L68.93,0,64.39,6.61c-.39.59-5.5,8.09-11.33,16.85-2.16,3.25-4.41,6.65-6.54,10-3.14,4.82-6.05,9.4-8.09,12.86-.52.88-1,1.78-1.47,2.69a.75.75,0,0,0-.07.12c-.45.9-.87,1.83-1.26,2.75a1.47,1.47,0,0,0-.1.22c-.39.92-.75,1.85-1.07,2.81,0,.08-.07.18-.1.29-.32.93-.62,1.88-.88,2.86,0,.11-.06.21-.1.32-.26,1-.48,1.94-.69,2.92,0,.12,0,.24-.07.36-.2,1-.36,2-.49,3,0,.12,0,.25-.06.37q-.2,1.5-.3,3c0,.1,0,.22,0,.33-.06,1-.09,2-.08,3.08v.31c0,1,0,2.07.14,3.11a2.35,2.35,0,0,0,0,.27c.09,1,.22,2.09.38,3.14,0,.06,0,.13,0,.2.16,1.06.38,2.12.64,3.17l0,.13c.26,1.06.57,2.13.93,3.18a.08.08,0,0,0,0,0c.34,1,.72,2,1.15,2.91.05.14.11.27.17.41.41.93.87,1.84,1.36,2.72l.24.43c.53.91,1.08,1.8,1.68,2.67l.18.23A32.52,32.52,0,0,0,40.72,97a30.34,30.34,0,0,0,6.82-2.43,24.11,24.11,0,0,0,3.82-2.32c-.46-.42-.91-.82-1.34-1.28-10.2-10.56-8.73-28-2.17-39.1,1.37-2.32,3.19-5.22,5.21-8.38s4.29-6.65,6.54-10.06c3.4-5.14,6.76-10.15,9.33-14,2.56,3.8,5.94,8.83,9.33,14,2.25,3.41,4.52,6.87,6.55,10.06s3.82,6,5.2,8.36C96.56,62.94,98,80.4,87.85,91a31.69,31.69,0,0,1-3,2.68,26.28,26.28,0,0,1-10.76,5.08,25,25,0,0,1-5.12.52c-.72,0-1.44,0-2.17-.11l-.63,0c-.88,1-2.55,2.7-4.66,4.58a30.08,30.08,0,0,1-5.84,4,36.1,36.1,0,0,0,29.18-1.14,38.18,38.18,0,0,0,10.77-7.79c0-.06.1-.1.14-.15C109.84,84,108.27,61.19,99.43,46.28Z"/><path class="cls-4" d="M67.93,46.17c-1.71-2.87-4-6.53-6.53-10.44-2.22,3.38-4.46,6.78-6.48,10,2,3.15,2.21,3.75,3.59,6.08.4.68.78,1.4,1.16,2.14l.07.16c.33.66.63,1.32.92,2s.52,1.34.76,2c0,.09.06.17.09.25.27.77.52,1.56.73,2.36A36.44,36.44,0,0,1,63.33,76a21,21,0,0,1-1,4.09,28.41,28.41,0,0,1-4.28,8.69A26.12,26.12,0,0,1,56.17,91a24.9,24.9,0,0,1-3,2.69A22.35,22.35,0,0,1,51.23,95a27.7,27.7,0,0,1-4.89,2.47c-.12,0-1.86.56-4.17,1.29a24.32,24.32,0,0,1-4.9.5A26.23,26.23,0,0,1,18.35,91c-10.18-10.56-8.71-28-2.16-39.1,4.89-8.22,15.14-23.59,21.08-32.39.37.55.72,1.07,1.08,1.59L45,31c2.14-3.3,4.4-6.68,6.55-9.91C45.71,12.32,42.2,7.2,41.79,6.61L37.27,0,32.75,6.61C32,7.72,14,34.05,6.77,46.28-2.07,61.19-3.63,84,10.48,98.57a37.07,37.07,0,0,0,26.79,11.62,36.17,36.17,0,0,0,15.86-3.65,38.13,38.13,0,0,0,5.76-3.47,40.09,40.09,0,0,0,5.18-4.46c0-.06.09-.09.14-.16.72-.74,1.38-1.52,2-2.32C78.12,81.51,76.32,60.33,67.93,46.17Z"/></g></g></svg>